Normalized EMG Linear Envelopes
nRows=198
nColumns=4

endheader
time	 med_gas_r	  soleus_r	 tib_ant_r	
3.72581	  0.007939	  0.003991	  0.002251	
3.75907	  0.007572	  0.005194	  0.002282	
3.79234	  0.007244	  0.006238	  0.002305	
3.8256	  0.006983	  0.006990	  0.002320	
3.85887	  0.006792	  0.007359	  0.002325	
3.89214	  0.006658	  0.007343	  0.002322	
3.9254	  0.006573	  0.007039	  0.002314	
3.95867	  0.006544	  0.006596	  0.002309	
3.99194	  0.006591	  0.006153	  0.002310	
4.0252	  0.006731	  0.005790	  0.002324	
4.05847	  0.006973	  0.005522	  0.002351	
4.09173	  0.007310	  0.005324	  0.002388	
4.125	  0.007710	  0.005155	  0.002430	
4.15827	  0.008114	  0.004971	  0.002472	
4.19153	  0.008438	  0.004739	  0.002514	
4.2248	  0.008616	  0.004441	  0.002557	
4.25806	  0.008629	  0.004084	  0.002608	
4.29133	  0.008511	  0.003713	  0.002673	
4.3246	  0.008316	  0.003427	  0.002759	
4.35786	  0.008075	  0.003391	  0.002870	
4.39113	  0.007798	  0.003834	  0.002996	
4.4244	  0.007503	  0.005016	  0.003115	
4.45766	  0.007246	  0.007193	  0.003197	
4.49093	  0.007126	  0.010621	  0.003220	
4.52419	  0.007244	  0.015550	  0.003184	
4.55746	  0.007680	  0.022113	  0.003110	
4.59073	  0.008473	  0.030014	  0.003027	
4.62399	  0.009620	  0.038214	  0.002949	
4.65726	  0.011041	  0.044955	  0.002870	
4.69052	  0.012536	  0.048382	  0.002758	
4.72379	  0.013791	  0.047457	  0.002569	
4.75706	  0.014486	  0.042505	  0.002254	
4.79032	  0.014456	  0.034988	  0.001769	
4.82359	  0.013782	  0.026702	  0.001081	
4.85685	  0.012733	  0.019032	  0.000194	
4.89012	  0.011612	  0.012685	 -0.000827	
4.92339	  0.010623	  0.007858	 -0.001810	
4.95665	  0.009838	  0.004517	 -0.002432	
4.98992	  0.009250	  0.002588	 -0.002214	
5.02319	  0.008856	  0.002020	 -0.000528	
5.05645	  0.008703	  0.002799	  0.003376	
5.08972	  0.008888	  0.004970	  0.010345	
5.12298	  0.009522	  0.008646	  0.021226	
5.15625	  0.010683	  0.013988	  0.036585	
5.18952	  0.012367	  0.021080	  0.056263	
5.22278	  0.014457	  0.029684	  0.079020	
5.25605	  0.016722	  0.039003	  0.102622	
5.28931	  0.018865	  0.047703	  0.124494	
5.32258	  0.020607	  0.054347	  0.142537	
5.35585	  0.021771	  0.058062	  0.155520	
5.38911	  0.022318	  0.058921	  0.162836	
5.42238	  0.022327	  0.057719	  0.164101	
5.45565	  0.021943	  0.055327	  0.159222	
5.48891	  0.021333	  0.052212	  0.148938	
5.52218	  0.020636	  0.048483	  0.135185	
5.55544	  0.019949	  0.044284	  0.120713	
5.58871	  0.019322	  0.040066	  0.108134	
5.62198	  0.018777	  0.036461	  0.099088	
5.65524	  0.018321	  0.033933	  0.093902	
5.68851	  0.017943	  0.032506	  0.091707	
5.72177	  0.017596	  0.031759	  0.090844	
5.75504	  0.017215	  0.031079	  0.089540	
5.78831	  0.016753	  0.029983	  0.086688	
5.82157	  0.016226	  0.028359	  0.082296	
5.85484	  0.015711	  0.026462	  0.077269	
5.8881	  0.015299	  0.024699	  0.072679	
5.92137	  0.015033	  0.023347	  0.069103	
5.95464	  0.014896	  0.022408	  0.066457	
5.9879	  0.014832	  0.021660	  0.064312	
6.02117	  0.014794	  0.020855	  0.062347	
6.05444	  0.014775	  0.019882	  0.060609	
6.0877	  0.014795	  0.018822	  0.059484	
6.12097	  0.014871	  0.017888	  0.059426	
6.15423	  0.014994	  0.017315	  0.060634	
6.1875	  0.015130	  0.017268	  0.062896	
6.22077	  0.015246	  0.017813	  0.065706	
6.25403	  0.015329	  0.018913	  0.068557	
6.2873	  0.015381	  0.020426	  0.071141	
6.32056	  0.015400	  0.022097	  0.073313	
6.35383	  0.015372	  0.023595	  0.074950	
6.3871	  0.015281	  0.024612	  0.075911	
6.42036	  0.015135	  0.024997	  0.076151	
6.45363	  0.014956	  0.024798	  0.075814	
6.4869	  0.014760	  0.024198	  0.075195	
6.52016	  0.014544	  0.023397	  0.074620	
6.55343	  0.014296	  0.022557	  0.074365	
6.58669	  0.014027	  0.021815	  0.074652	
6.61996	  0.013782	  0.021288	  0.075654	
6.65323	  0.013616	  0.021038	  0.077468	
6.68649	  0.013566	  0.021029	  0.080022	
6.71976	  0.013627	  0.021145	  0.082946	
6.75302	  0.013765	  0.021276	  0.085544	
6.78629	  0.013927	  0.021369	  0.087028	
6.81956	  0.014056	  0.021420	  0.086959	
6.85282	  0.014089	  0.021424	  0.085584	
6.88609	  0.013983	  0.021362	  0.083765	
6.91935	  0.013741	  0.021228	  0.082472	
6.95262	  0.013438	  0.021066	  0.082213	
6.98589	  0.013187	  0.020945	  0.082765	
7.01915	  0.013088	  0.020922	  0.083387	
7.05242	  0.013180	  0.021009	  0.083300	
7.08569	  0.013437	  0.021165	  0.082082	
7.11895	  0.013777	  0.021308	  0.079765	
7.15222	  0.014097	  0.021331	  0.076692	
7.18548	  0.014295	  0.021141	  0.073320	
7.21875	  0.014318	  0.020710	  0.070065	
7.25202	  0.014184	  0.020117	  0.067170	
7.28528	  0.013978	  0.019540	  0.064664	
7.31855	  0.013816	  0.019213	  0.062469	
7.35181	  0.013809	  0.019399	  0.060646	
7.38508	  0.014040	  0.020397	  0.059563	
7.41835	  0.014551	  0.022491	  0.059742	
7.45161	  0.015318	  0.025780	  0.061440	
7.48488	  0.016213	  0.029933	  0.064353	
7.51815	  0.017010	  0.034114	  0.067778	
7.55141	  0.017468	  0.037230	  0.071081	
7.58468	  0.017444	  0.038419	  0.074006	
7.61794	  0.016965	  0.037461	  0.076564	
7.65121	  0.016196	  0.034826	  0.078753	
7.68448	  0.015345	  0.031371	  0.080524	
7.71774	  0.014587	  0.027937	  0.081996	
7.75101	  0.014036	  0.025102	  0.083622	
7.78427	  0.013746	  0.023121	  0.086028	
7.81754	  0.013717	  0.021988	  0.089637	
7.85081	  0.013893	  0.021525	  0.094364	
7.88407	  0.014177	  0.021483	  0.099576	
7.91734	  0.014458	  0.021638	  0.104357	
7.9506	  0.014650	  0.021861	  0.107902	
7.98387	  0.014701	  0.022132	  0.109832	
8.01714	  0.014607	  0.022499	  0.110283	
8.0504	  0.014401	  0.023009	  0.109733	
8.08367	  0.014144	  0.023653	  0.108676	
8.11694	  0.013906	  0.024340	  0.107324	
8.1502	  0.013744	  0.024917	  0.105502	
8.18347	  0.013686	  0.025240	  0.102845	
8.21673	  0.013725	  0.025246	  0.099187	
8.25	  0.013825	  0.024998	  0.094855	
8.28327	  0.013942	  0.024646	  0.090641	
8.31653	  0.014036	  0.024348	  0.087452	
8.3498	  0.014079	  0.024209	  0.085924	
8.38306	  0.014060	  0.024266	  0.086259	
8.41633	  0.013992	  0.024503	  0.088330	
8.4496	  0.013916	  0.024870	  0.091841	
8.48286	  0.013883	  0.025304	  0.096397	
8.51613	  0.013925	  0.025745	  0.101478	
8.5494	  0.014029	  0.026173	  0.106481	
8.58266	  0.014141	  0.026623	  0.110896	
8.61593	  0.014205	  0.027168	  0.114546	
8.64919	  0.014202	  0.027880	  0.117687	
8.68246	  0.014169	  0.028787	  0.120847	
8.71573	  0.014176	  0.029886	  0.124487	
8.74899	  0.014278	  0.031173	  0.128728	
8.78226	  0.014497	  0.032641	  0.133331	
8.81552	  0.014841	  0.034225	  0.137892	
8.84879	  0.015321	  0.035768	  0.142108	
8.88206	  0.015946	  0.037085	  0.145907	
8.91532	  0.016683	  0.038075	  0.149387	
8.94859	  0.017444	  0.038798	  0.152654	
8.98185	  0.018102	  0.039427	  0.155760	
9.01512	  0.018563	  0.040131	  0.158822	
9.04839	  0.018815	  0.040958	  0.162167	
9.08165	  0.018934	  0.041815	  0.166261	
9.11492	  0.019041	  0.042534	  0.171415	
9.14819	  0.019245	  0.043016	  0.177501	
9.18145	  0.019621	  0.043338	  0.183970	
9.21472	  0.020199	  0.043773	  0.190195	
9.24798	  0.020973	  0.044700	  0.195907	
9.28125	  0.021917	  0.046450	  0.201394	
9.31452	  0.022979	  0.049200	  0.207401	
9.34778	  0.024093	  0.052931	  0.214875	
9.38105	  0.025187	  0.057485	  0.224675	
9.41431	  0.026207	  0.062630	  0.237182	
9.44758	  0.027135	  0.068106	  0.251869	
9.48085	  0.027996	  0.073637	  0.267249	
9.51411	  0.028822	  0.078935	  0.281522	
9.54738	  0.029622	  0.083755	  0.293662	
9.58065	  0.030381	  0.087984	  0.304067	
9.61391	  0.031117	  0.091700	  0.314138	
9.64718	  0.031916	  0.095116	  0.324967	
9.68044	  0.032882	  0.098422	  0.336173	
9.71371	  0.034040	  0.101644	  0.345985	
9.74698	  0.035286	  0.104659	  0.352642	
9.78024	  0.036458	  0.107333	  0.355935	
9.81351	  0.037445	  0.109644	  0.357359	
9.84677	  0.038211	  0.111626	  0.358576	
9.88004	  0.038728	  0.113159	  0.359461	
9.91331	  0.038876	  0.113789	  0.357416	
9.94657	  0.038449	  0.112803	  0.348535	
9.97984	  0.037269	  0.109637	  0.329728	
10.0131	  0.035332	  0.104445	  0.300357	
10.0464	  0.032868	  0.098433	  0.262400	
10.0796	  0.030249	  0.093606	  0.219315	
10.1129	  0.027828	  0.092062	  0.174641	
10.1462	  0.025824	  0.095310	  0.131226	
10.1794	  0.024306	  0.104002	  0.091128	
10.2127	  0.023254	  0.117948	  0.055685	
10.246	  0.022607	  0.136101	  0.025472	
10.2792	  0.022267	  0.156501	  0.000321	
